<svg xmlns="http://www.w3.org/2000/svg" xmlns:xlink="http://www.w3.org/1999/xlink" version="1.1" id="Layer_1" x="0px" y="0px" enable-background="new 0 0 1024 688" xml:space="preserve" viewBox="117.4 38.79 598.91 504.41">
<path fill="#000000" opacity="1.000000" stroke="none" d=" M667.584778,497.920227   C645.996887,501.196686 632.072449,488.599426 625.250305,467.743134   C619.921143,451.451080 615.709045,434.781311 616.719238,417.323669   C616.775208,416.356293 616.584900,415.374695 616.491577,414.171143   C612.132935,413.430756 608.216553,415.642303 604.099670,415.290100   C601.947083,415.105957 599.758057,415.335449 597.608032,415.135651   C589.136108,414.348572 589.610413,414.430634 587.488403,422.918823   C584.258118,435.840057 585.642578,449.099060 583.758301,462.129486   C581.605042,477.020111 574.307190,488.390533 563.367737,498.157166   C551.338928,508.896393 536.775391,513.153564 521.710754,510.661011   C504.849670,507.871246 492.081360,497.617401 485.759003,480.855164   C484.428345,477.327301 484.093353,473.419556 481.459717,469.497864   C475.333496,479.570648 466.863403,487.135345 460.169189,496.115631   C447.372040,513.283142 432.439209,527.913696 412.960022,537.232239   C397.855499,544.458008 382.661804,545.405762 366.718445,538.535217   C348.418060,530.648865 336.087677,517.819458 329.388306,499.275269   C327.401428,493.775452 323.947662,488.879822 322.031982,483.468231   C315.415985,464.779053 314.238373,445.869598 322.088257,427.113251   C323.427887,423.912384 324.796173,420.756287 325.676636,416.989594   C307.900879,411.172150 294.982819,400.903870 292.645294,380.106018   C283.565826,386.424011 275.403717,392.326172 267.019745,397.894318   C245.411514,412.245178 222.159271,421.793518 195.674713,421.142059   C185.050674,420.880707 174.977615,417.846100 165.331940,413.601440   C159.453522,411.014618 153.341751,408.959320 147.439377,406.476166   C138.349762,402.652069 133.754135,395.795837 129.626648,387.976410   C119.295761,368.404694 115.541222,347.285461 118.259613,325.620819   C119.613029,314.834564 122.167755,303.807281 126.802231,293.603943   C128.658508,289.517120 130.211105,285.293304 131.947006,281.150726   C145.276932,249.340271 165.257675,222.368820 192.478745,201.287140   C212.574142,185.723999 235.889282,178.882919 261.382141,181.964600   C271.129669,183.142914 280.399719,186.793823 288.884338,192.028778   C290.413055,192.971970 291.714264,194.396362 294.011627,194.510208   C296.054565,192.647232 296.643341,189.794907 297.812775,187.306458   C306.612000,168.582550 322.297791,158.976425 341.863281,156.051163   C351.281525,154.643036 360.954102,156.977325 370.193939,160.449493   C377.560425,163.217728 385.347382,165.195297 389.535614,172.475281   C394.428925,180.980865 398.953674,189.735870 401.295319,199.407822   C402.067932,202.599075 403.064026,205.736237 404.138672,209.537521   C421.105835,195.489716 441.643097,191.717331 461.362946,186.145386   C469.794586,183.762955 478.676758,182.784195 487.424042,181.769623   C494.493073,180.949707 495.013916,180.871338 494.834137,173.822876   C494.792755,172.198425 494.553864,170.579025 494.330841,168.135010   C486.307465,170.158524 478.826385,172.189056 471.275146,173.911774   C462.667267,175.875549 454.023224,177.158936 445.065460,176.622711   C438.627472,176.237305 432.049927,176.719131 425.644501,177.606812   C416.681244,178.848953 408.905518,176.088638 401.328491,171.942825   C398.116852,170.185562 397.244385,166.780472 395.753754,163.866989   C391.194702,154.956314 391.620209,146.279709 394.293091,136.442398   C398.156525,122.223511 408.001617,112.701416 417.317230,103.036484   C428.835724,91.086113 444.204773,84.508446 460.118317,80.335899   C470.248016,77.679871 480.871857,76.854759 490.721344,82.617592   C494.083618,84.584816 497.186981,86.668869 495.679932,91.159111   C494.169373,95.659798 490.364807,95.662575 486.552704,94.956245   C464.666229,90.900948 445.382782,96.363068 428.376892,110.568855   C417.441956,119.703331 411.115387,137.532440 414.532776,148.908859   C416.791016,156.426407 422.910126,158.953293 429.217926,161.051544   C440.257019,164.723618 451.238129,164.551712 462.538361,160.969498   C474.085358,157.309036 486.099304,155.197418 497.454834,150.723236   C508.994446,146.176544 519.624756,140.707169 525.299072,128.767700   C526.415283,126.419044 526.619812,126.516243 526.329712,122.719025   C520.693298,120.017174 514.112976,120.277115 508.796356,116.464783   C506.707703,114.967064 505.809143,113.438782 505.934753,111.175583   C506.067200,108.788734 507.891510,107.550468 509.925629,107.347572   C513.798889,106.961220 514.350647,104.790840 514.848511,101.346703   C516.257629,91.599876 514.327576,81.678001 516.676453,72.029030   C517.659180,67.991898 518.364746,63.840244 519.813538,59.971832   C525.683350,44.299141 535.495056,38.123386 553.125732,38.849247   C557.257629,39.019360 561.358276,39.885834 565.480103,40.374157   C577.374451,41.783302 583.221069,50.803413 588.814148,59.605400   C596.276062,71.348381 599.213745,84.563530 600.648315,98.385765   C602.430481,115.557678 606.837341,132.497894 606.200500,149.880188   C605.393127,171.917145 608.715454,193.645676 610.015686,215.521622   C610.789124,228.533722 615.669189,240.280365 618.879761,252.803070   C622.784729,253.355209 626.360107,251.757263 630.064697,251.358200   C652.017517,248.993423 673.401794,249.029434 690.005066,267.207764   C694.155579,271.752045 698.541687,275.983856 701.688477,281.432434   C704.901184,286.995026 706.795898,292.651154 707.925598,299.056885   C710.351257,312.812103 712.637329,326.572052 713.953003,340.463287   C715.657776,358.463440 717.614441,376.449829 715.137268,394.598938   C713.159241,409.091125 712.240662,423.729584 710.197388,438.210785   C707.682495,456.035065 700.583984,472.151642 689.516418,486.318146   C684.185120,493.142120 676.486755,496.440735 667.584778,497.920227  M135.189667,327.434082   C131.537781,342.671509 134.856918,357.203094 139.686813,371.573914   C140.076813,372.734253 140.941559,373.475098 142.205383,373.767609   C143.759491,374.127319 144.696899,375.304199 145.650635,376.496765   C153.468384,386.272034 162.419571,394.388306 175.300629,396.807556   C177.908752,397.297394 180.482834,398.012268 183.033508,398.757263   C211.309158,407.015839 236.818893,401.874695 261.190399,385.209106   C278.340973,373.481384 294.798218,361.327881 308.559143,345.718567   C309.687286,344.438904 311.155243,343.668091 312.796967,343.194336   C316.828979,342.030701 318.542572,345.273163 320.450928,347.560822   C321.999359,349.417053 322.381348,352.522034 320.272552,353.903839   C315.363586,357.120575 314.639557,362.331177 312.888916,367.092773   C306.376251,384.806763 319.059998,397.467773 330.277588,400.226959   C334.082764,401.162872 337.039032,400.499603 339.462616,397.173706   C343.970367,390.987762 348.662262,384.935242 353.316925,378.857361   C356.662445,374.488800 359.785095,370.588196 360.819275,364.410675   C362.705841,353.141632 363.743500,341.754211 365.593079,330.483154   C367.906494,316.385834 370.105042,302.264313 373.006989,288.282166   C376.314453,272.346069 380.496002,256.597900 381.881744,240.289688   C382.193787,236.617325 382.064850,232.381592 385.154755,229.541916   C388.167969,226.772751 388.977631,223.435562 388.722076,219.611328   C388.489441,216.130157 388.261261,212.648468 387.992462,209.169983   C386.716431,192.656021 379.125793,180.555695 363.539124,173.925476   C360.008484,172.423630 356.680573,170.338776 352.616547,171.266479   C347.920197,172.338501 343.141998,173.188812 338.581421,174.688934   C330.728729,177.271912 324.333984,181.946426 320.418640,189.442566   C316.839630,196.294861 313.760773,203.646667 314.020020,211.280334   C314.210358,216.885025 312.528137,220.720810 309.068787,224.462677   C307.510223,226.148514 306.348572,228.679230 303.539551,227.885437   C300.879425,227.133698 298.750275,225.297760 298.189545,222.453186   C297.654816,219.740280 296.312256,217.486267 294.933777,215.218567   C291.839386,210.127975 286.493805,207.940094 281.793976,204.806259   C271.274139,197.791641 259.438293,195.662231 247.428268,196.574829   C221.687744,198.530746 199.874542,210.263382 182.766617,228.861252   C167.627701,245.318604 154.919952,263.842041 145.853867,284.758118   C139.996918,298.270477 135.885803,311.868713 135.189667,327.434082  M382.507172,526.945190   C390.734009,526.973328 398.261108,524.683044 405.140839,520.180908   C410.994659,516.350159 416.821075,512.472839 422.761200,508.779572   C436.235596,500.401917 448.099792,489.705414 457.198822,477.180634   C472.272888,456.431274 481.122894,432.349640 488.012848,407.673798   C493.073822,389.548248 493.451202,370.938995 493.661285,352.311920   C493.880859,332.840515 495.585907,313.466370 497.526459,294.106873   C498.111298,288.272308 498.503235,282.418427 499.053955,275.716309   C494.539246,277.399170 490.935974,278.597290 487.457947,280.087646   C484.964844,281.155945 482.190491,281.671356 480.352417,279.912506   C476.602966,276.324646 472.714752,274.953156 467.812836,276.927704   C467.744934,276.955048 467.467682,276.462555 467.139038,276.005096   C467.465881,275.544739 467.713043,274.815674 468.205841,274.560089   C474.666199,271.208984 480.409851,266.740997 487.431702,264.136566   C493.611542,261.844452 500.516022,259.760651 504.476135,253.464493   C505.455444,251.907532 507.126404,251.419403 508.869202,251.666168   C512.592163,252.193344 515.782654,250.747986 518.782471,248.941071   C526.484802,244.301605 534.150879,239.596115 541.716431,234.737885   C545.381592,232.384293 548.399353,229.240921 550.889221,225.631012   C553.923218,221.232178 555.325562,216.077927 555.064636,211.034744   C554.759094,205.126892 544.122192,196.272415 537.833862,195.370926   C531.885986,194.518234 525.925659,194.117310 519.914551,194.189377   C514.430481,194.255127 509.029083,195.953690 503.520447,195.100677   C496.509796,194.015060 489.593567,195.153336 482.679291,195.899292   C466.038300,197.694565 450.099060,202.575775 434.194305,207.469131   C428.967255,209.077332 422.911987,209.705978 420.386597,216.014908   C420.053802,216.846298 418.489960,217.184921 417.189423,217.926834   C419.462921,221.798492 417.421051,223.684189 414.266541,226.309799   C408.318146,231.260849 401.405060,235.742447 400.349396,244.724945   C398.409729,261.229126 396.140015,277.694519 394.011932,294.176605   C391.818207,311.166382 389.624603,328.156189 387.447632,345.148132   C387.278656,346.466919 387.010803,347.973267 388.128357,348.933624   C391.148987,351.529175 390.760986,355.602020 392.550995,358.760864   C393.794495,360.955139 392.947052,363.553802 390.716614,364.912079   C385.216339,368.261627 383.113556,373.967102 380.326233,379.212189   C378.916168,381.865570 379.061920,383.986115 381.785980,386.113159   C384.903412,388.547394 387.410034,391.678833 389.889496,394.865173   C398.192932,405.535858 399.734161,418.305023 401.713593,430.942871   C402.559692,436.345032 399.348328,440.302551 394.017365,441.417145   C390.398132,442.173828 388.214935,441.138153 387.758789,437.165222   C387.359497,433.687836 386.807465,430.237091 387.183258,426.720520   C387.560059,423.194275 386.487976,419.779358 384.084930,417.565125   C379.072968,412.947021 375.408600,407.620544 372.554749,401.473602   C370.676422,397.427856 367.334534,397.260132 364.213287,400.395050   C360.678741,403.945007 356.734497,406.924896 352.566101,409.742889   C348.752930,412.320801 343.998993,413.899017 341.386444,417.926239   C330.715729,434.374969 327.948975,452.628357 333.040497,471.099396   C336.725677,484.468445 343.414093,497.037140 350.567596,509.099487   C357.529846,520.839294 368.147827,526.372009 382.507172,526.945190  M590.516663,286.167633   C589.739319,280.929871 586.735046,276.761566 584.007202,272.443054   C583.307129,271.334808 583.052856,270.024658 583.242065,268.606537   C584.274170,260.867737 585.321594,253.128815 586.182007,245.369766   C587.256958,235.677719 588.155334,225.966110 589.129944,216.262955   C585.042419,231.417130 575.739380,242.176819 562.221375,249.395309   C550.753418,255.519119 538.667969,260.307465 526.565796,265.031036   C525.026306,265.631927 522.951599,265.647003 522.633179,268.189911   C521.974243,273.452972 520.690613,278.654419 520.279175,283.929199   C517.512085,319.403381 517.233398,355.017029 514.628662,390.490356   C513.429199,406.825531 512.518921,423.424652 505.290009,438.711273   C503.228729,443.070190 501.594849,447.630127 499.719208,452.078552   C498.913483,453.989471 498.594696,455.774506 499.523132,457.824036   C503.529083,466.667267 508.103638,475.078033 515.053162,482.076447   C523.531799,490.614624 532.189636,490.936798 541.438782,483.153015   C553.953552,472.621094 561.334473,458.668549 567.447205,444.027283   C571.516296,434.280945 575.722473,424.422821 574.931091,413.306030   C574.676025,409.722992 573.695374,407.490265 570.587708,405.697876   C565.807922,402.941101 561.679504,399.248688 557.918945,395.223450   C555.036560,392.138123 554.897949,386.962219 557.554993,384.300110   C560.460999,381.388580 563.288147,382.430969 566.529968,384.288727   C571.381226,387.068848 574.710388,393.594757 581.929871,391.048767   C582.145508,390.972717 582.554749,391.270966 582.800537,391.480560   C590.415710,397.974213 599.581116,398.484009 608.795837,397.577179   C617.140808,396.755920 625.550110,396.258789 632.925354,390.828949   C640.129028,385.525391 655.598511,386.727539 662.998291,392.387695   C659.678101,391.066193 657.464355,396.413422 654.020935,393.139343   C651.447388,399.156189 646.265930,401.829102 641.630981,404.914581   C634.985168,409.338745 631.325378,415.334686 631.336121,423.211304   C631.360352,441.070953 636.872009,457.623810 644.450073,473.500214   C647.822510,480.565582 658.200867,484.244049 665.473328,480.997589   C678.948669,474.982056 689.066040,465.370636 693.550476,450.953461   C698.220459,435.939789 699.375244,420.318451 700.711731,404.743256   C701.464355,395.972595 703.444458,387.228149 703.381042,378.482697   C703.240051,359.021027 701.140686,339.645996 698.506836,320.365417   C697.565735,313.476379 696.703613,306.313568 692.558899,300.430603   C682.797852,286.575958 670.674011,275.547913 654.706360,268.984528   C641.113647,263.397339 628.410461,264.801331 616.111938,272.398682   C613.663574,273.911163 612.205566,275.512543 613.044861,278.883514   C613.956421,282.544739 612.943481,286.085175 608.720337,287.199554   C602.853943,288.747528 596.910583,289.220551 590.516663,286.167633  M537.352905,66.860687   C532.575195,78.598145 530.004761,90.587402 531.936768,103.402847   C532.482117,107.020447 533.851074,108.887558 536.911438,110.568459   C541.395142,113.031143 545.960144,116.787178 544.976746,122.141838   C543.407166,130.688354 541.402527,139.540009 532.898865,144.679306   C528.628784,147.259964 524.498047,150.078522 520.381165,152.901627   C518.755371,154.016571 517.123169,155.243866 517.150757,157.619247   C517.226196,164.111649 517.234009,170.604828 517.277344,177.097626   C517.289673,178.948975 517.875916,180.514984 519.993835,180.595856   C531.480774,181.034393 542.737488,183.520905 554.131958,184.492523   C563.224304,185.267822 571.416565,187.705490 578.854431,192.774536   C583.754395,196.113922 588.929016,199.383026 589.352173,206.541275   C590.104187,195.634460 589.907410,184.893646 590.158203,174.163269   C590.422180,162.867065 591.814880,151.556808 591.428589,140.296814   C591.013611,128.200333 589.402649,116.114838 587.066284,104.186363   C584.669495,91.948853 582.389832,79.682770 576.060242,68.637459   C572.629028,62.649967 567.660034,58.295486 561.774231,55.058609   C557.533447,52.726379 553.865967,56.448009 549.879089,57.111759   C549.060120,57.248096 548.227295,57.392185 547.449341,57.668919   C543.081360,59.222759 539.253784,61.420780 537.352905,66.860687  z"/>
<path fill="#000000" opacity="1.000000" stroke="none" d=" M192.757568,259.660919   C201.778488,257.957886 206.590271,252.974487 208.156540,244.140060   C208.860382,240.170059 211.166840,236.449951 212.584335,232.534393   C215.556107,224.325562 223.760651,222.994720 229.039566,229.734009   C232.849899,234.598450 236.304291,239.788223 237.952820,245.803375   C239.251953,250.543747 241.967697,252.298492 246.706268,251.814148   C251.337387,251.340790 255.995239,251.038376 260.648590,250.894608   C267.193512,250.692429 270.518646,255.989761 267.709839,261.984619   C264.461273,268.918152 258.512726,273.752380 253.832291,279.567047   C251.772629,282.125793 251.224487,284.409698 251.647293,287.734650   C252.378204,293.482391 252.378586,299.363678 252.198273,305.173798   C252.054031,309.821198 248.490555,311.927063 243.673859,310.543732   C236.325958,308.433533 229.108963,306.158966 221.283493,305.888062   C217.212112,305.747131 213.994034,306.792816 211.183502,309.043701   C206.973068,312.415741 202.192215,314.733337 197.612198,317.434326   C194.923904,319.019775 192.329636,319.329071 189.771713,317.159851   C187.300385,315.064056 186.882431,312.461090 187.672134,309.471375   C189.207535,303.658478 189.597458,297.712921 189.843567,291.728790   C189.973557,288.568176 188.573853,286.779907 185.904388,285.518005   C183.196289,284.237885 180.453430,282.976593 177.917450,281.398987   C173.361145,278.564575 172.541428,274.908630 175.429581,270.368774   C177.413132,267.250854 179.886642,264.661896 183.647629,263.458313   C186.647537,262.498291 189.489441,261.044403 192.757568,259.660919  M209.138184,295.548706   C210.282379,294.867401 211.546188,294.327576 212.549164,293.479309   C216.076324,290.496063 219.312256,290.102173 223.867035,292.196198   C228.030121,294.110229 233.135818,293.973999 237.719666,294.723877   C240.268967,289.058472 238.652786,283.438507 240.053696,278.148804   C241.518326,272.618622 247.603226,270.345367 249.208450,264.789490   C245.832550,263.831360 242.897980,264.510437 239.963577,264.950806   C232.327484,266.096771 230.799591,264.828186 228.727844,257.443451   C227.351059,252.535812 226.672318,247.078522 221.941193,243.136307   C218.106323,248.271210 217.193375,253.928268 215.676758,259.281494   C213.646942,266.446198 210.535126,269.362396 202.993317,270.419037   C199.399139,270.922638 195.992157,271.963867 191.750961,274.522430   C204.438309,279.349548 202.909103,289.351288 201.312393,299.140900   C204.874390,298.801941 206.689682,297.332275 209.138184,295.548706  z"/>
</svg>